<?xml version="1.0" encoding="UTF-8"?>
<!DOCTYPE svg PUBLIC "-//W3C//DTD SVG 1.1//EN" "http://www.w3.org/Graphics/SVG/1.1/DTD/svg11.dtd">
<!-- Creator: CorelDRAW 2021.5 -->
<svg xmlns="http://www.w3.org/2000/svg" xml:space="preserve" width="168.885mm" height="164.672mm" version="1.1" style="shape-rendering:geometricPrecision; text-rendering:geometricPrecision; image-rendering:optimizeQuality; fill-rule:evenodd; clip-rule:evenodd"
viewBox="0 0 8801.28 8581.71"
 xmlns:xlink="http://www.w3.org/1999/xlink"
 xmlns:xodm="http://www.corel.com/coreldraw/odm/2003">
 <defs>
  <style type="text/css">
   <![CDATA[
    .str0 {stroke:black;stroke-width:130.29;stroke-miterlimit:22.9256}
    .str2 {stroke:black;stroke-width:10.42;stroke-miterlimit:22.9256}
    .str1 {stroke:lime;stroke-width:10.42;stroke-miterlimit:22.9256}
    .fil0 {fill:black}
    .fil1 {fill:lime}
    .fil3 {fill:#363435}
    .fil5 {fill:#E6E6E6}
    .fil4 {fill:#FEFEFE}
    .fil2 {fill:yellow}
   ]]>
  </style>
 </defs>
 <g id="Capa_x0020_1">
  <metadata id="CorelCorpID_0Corel-Layer"/>
  <g id="_2290975878544">
   <path class="fil0 str0" d="M3938.56 2821.68c0.18,-53.31 205.89,-90.78 241.94,-112.15 19.7,-11.68 280.29,-7.31 301.75,34.12 17.77,34.3 -243.35,21.59 -271.48,25.33 -36.04,4.8 -100.77,26.26 -137.74,27.76 -45.86,1.87 -102.13,75.52 -134.47,24.94zm745.74 1010.75l9.69 -15.24 -60.71 -18.21c-51.16,5.33 -144.85,58.59 -217.25,71.72 -70.79,12.84 -160.16,21.26 -221.79,33.94 -24.95,5.14 -103.38,-23.87 -133.34,-32.37 -78.04,-22.11 -76.23,-43.54 -116.29,-56.11 -64.62,-20.26 -160.57,-107.39 -212.4,-131.45 -157.93,-73.32 -314.34,-1.93 -471.91,26.18 -31.44,5.61 -214.73,16.57 -240.71,7.8 -63.7,-21.49 -233.47,-55.58 -276.45,-88.82l-15.95 -16.98 -63.31 -19.89c19.68,-77.44 168.59,-63.79 234.61,-91.95 18.65,-7.96 223.02,-65.61 250.04,-71 44.85,-8.95 188.45,-82.97 235.28,-109.96 76.4,-44.03 133.35,-99.36 205.02,-133.97 47.66,-23.02 208.05,-66.63 238.99,-97.16 53.54,-52.81 132.9,-108.76 199.42,-145.91 59.81,-33.41 185.22,-75.95 250.97,-52.54 14.22,5.07 118.5,11.29 137.47,10.95 81.42,-1.47 75.12,3.18 155.82,24.42l18.14 -32.01 2651.34 -0.27c73.13,0 331.11,36.71 351.97,-37.69l-240.98 -252.22 -14.13 6.75 -10.16 1.94 -22.37 -45.93 -204.67 0.19 -30.15 28.07 -5.14 -7.66 7.94 15.83 145.92 140.14 -13.55 13.95c-42.1,30.67 -590.4,-380.22 -684.17,-466.99 -58.36,-54.01 -126.92,-138.58 -182.76,-181.49 -228.76,-175.78 -254.09,-177.53 -521.45,-270.98 -120.33,-42.06 -472.42,-93.58 -602.79,-89.53 -100.56,3.13 -213.82,-33.36 -293.24,-23.96 -81.86,9.69 -192.69,6.46 -277.91,6.49 -188.67,0.05 -362.72,16.24 -546.41,59.77 -346.28,82.06 -675.48,181.25 -1027.72,255.64l42.74 64.32 586.89 -105.84 3.93 21.79c-2.09,39.17 -139.99,44.18 -174.17,51.41 -68.3,14.46 -113.69,30.46 -182.24,45.15 -57.98,12.42 -127.92,26.51 -186.48,35.68 -94.24,14.77 -90.91,75.55 -159.75,-41.59 -54.86,-93.34 -133.64,-255.29 -243.2,-280.98 -84.17,-19.74 -331.06,-64.68 -402.98,-6.64 -3.19,43.36 25.01,31.83 25.37,69.79 0.48,49.95 -23.71,16.17 -5.58,84.69 0.42,1.56 -17.05,164.58 -20.16,174.84 -71.59,236.33 -48.76,128.9 11.2,326.82 27,89.11 -36.34,259.43 -65,360.24l-79.36 278.77c-22.05,67.77 14.59,40.64 1.03,78.76 -52.55,21.28 -99.58,-52.44 -102.33,-80.01 -7.2,-72.33 -31.34,-58.36 -40.27,-127.54 -0.13,-1.03 -12.61,-61.48 -14.38,-65.72 -15.98,-38.43 16.1,-38.56 -0.19,-67.7 -12.38,-22.16 -15.65,-93.41 -28.95,-124.87 -186.26,115.65 -206.67,190.46 -151.75,407.05 37.2,146.7 99.51,329.21 128.62,470.62 67.06,325.67 485.25,538.5 782.88,591.47 92.74,16.5 172.65,12.53 271.23,30.67 210.8,38.8 557.19,30.09 762.7,0.49 398.53,-57.4 540.52,-183.13 855.27,-405.19z"/>
   <path class="fil0 str0" d="M4571.51 2925.89c35.21,6 5.25,27.26 54.19,41.31 45.28,13 46.2,-0.04 74.49,34.74 1.7,2.09 48.02,44.33 51.78,46.58 41.42,24.85 16.25,36.66 43.05,56.09 40.39,29.29 203.28,158.64 187.64,212.02 -45.51,155.38 -30.9,181.75 -146.32,289.95 -22.88,21.44 -73.07,90.82 -95.21,106.65 -29.13,20.83 -91.87,49.48 -107.84,85.75l60.71 18.21 -9.69 15.24 352.9 -279.14c130.15,58.03 -402.37,438.31 -461.53,471.33 -64.3,35.9 -93.59,71.75 -143.45,98.79 -55.11,29.89 -90.9,30.99 -156.23,68.06 -89.74,50.9 -277.99,74.49 -335.81,119.15l549.32 678.01 52.43 41.18 -3.63 -16.01 641.76 -3.4 4.49 2.25 26.03 -62.85 -234.76 -381.16 19.07 -11.56c64.57,7.31 189.05,155.11 219.61,215.44 83.85,165.56 125.6,123.59 287.64,179.43 112.35,38.72 519.59,2.61 643.72,-34.92 146.36,-44.25 449.82,-151.66 554.86,-258.66 66.64,-67.88 147.44,-117.01 230.59,-206.09 55.93,-59.92 157.92,-199.59 211.86,-231.78l666.98 -22.13 5.34 2.69 -10.57 44.97c53.4,0.92 16.25,-54.49 54.66,-78.31 24.21,-15.02 35.68,-60.66 42.67,-97.42 10.13,-53.24 -105.07,-121.96 -96.72,-156.76l10.24 7.35 107.14 -186.83 -23.58 -41.81 -612.5 1.29 24.75 56.46 27.06 25.64c-11.76,35.71 -338.49,-125.3 -396.37,-142.03 -74.39,-21.5 -149.21,-41.51 -223.53,-63.22 -98.51,-28.77 -131.47,-18.51 -214.82,-38.85 -15.21,-3.71 -80.24,7.84 -92.45,15.94 -55.25,36.64 -35.51,2.11 -92.33,15 -102.24,23.19 -108.54,4.56 -208.49,-23.92 -39.04,-11.12 -190.55,-63.92 -218.55,-49.31 -23.11,12.06 -144.91,62.41 -163.59,56.88 9.58,-80.38 79.63,-66.67 114.77,-81.2 14.14,-5.85 60.51,-36.21 66.72,-37.4 48.42,-9.24 24.18,36.93 70.45,-10.67l1923.25 -20.2c8.59,-18.08 -39.53,-129.05 -50.13,-148.34 -25.65,-46.66 -51.54,-94.21 -77.31,-140.93 -18.8,-34.1 -158.99,-244.88 -183.29,-251.48 -20.86,74.4 -278.84,37.69 -351.97,37.69l-2651.34 0.27 -18.14 32.01z"/>
   <path class="fil0 str0" d="M7143.17 4220.5c14.07,74.47 -237.75,377.83 -303.86,440.49 -172.21,163.24 -253.37,146.67 -423.12,356.49 -127.69,157.83 -238.64,274.91 -324.2,464.23 -48.15,106.55 -185.15,540 -163.23,640.59 39.02,179.06 59.83,341.11 152.52,503.98 121.64,213.73 313.37,111.11 493.94,39.12 252.35,-100.6 691.49,-414.66 919.42,-584.95l385.73 -10.2 -12.86 66.5c92.47,-138.71 245.38,-332.68 359.53,-453.75 136.3,-144.56 233.01,-296.25 345.77,-455.23 123.79,-174.54 217.59,-380.04 127.58,-586.47 -66.45,-152.39 -139.5,-429.58 -358.99,-372.65 -224.51,58.23 -770.83,398.88 -917.84,581.84 -117.06,145.69 -250.53,274.71 -386.12,403.1 -82.12,77.75 -123.81,111.58 -188.43,209.18 -26.7,40.32 -67.04,75.58 -85.44,115.36 -24.24,52.45 -28.73,95.1 -65.3,145.15l-48.84 -15.43c-42.75,-101.24 162.55,-350.09 230.2,-420.89 97.2,-101.74 210.72,-222.65 316.14,-313.67 49.39,-42.65 270.43,-276.58 321.45,-338.59 97.57,-118.56 239.07,-242.24 287.68,-388.67l10.57 -44.97 -5.34 -2.69 -666.98 22.13z"/>
   <path class="fil0 str0" d="M4489.49 4988.64c16.92,12.97 17.74,33.68 28.57,50.1 15.55,23.57 27.25,5.7 42.25,38.69 19.38,42.63 49.24,49.68 79.84,80.55 61.62,62.17 -66.78,112.68 -129.12,145.78 -66.04,35.07 -130.61,73.88 -196.8,109.9 -83.14,45.24 -123.2,86.43 -203.19,131.4 -104.38,58.7 -716.41,506.16 -774.97,491.41 -8.41,-86.02 311.73,-257.68 330.09,-280.85 43.4,-54.76 176.41,-84.32 152.2,-142.14 -26.68,-63.72 67.09,-197.18 56.68,-266.52 -131.73,-97.91 -320.44,456.6 -549.82,381.97 -85.19,-27.71 -128.9,-18.9 -195.48,-82.44 -26.96,-25.72 -102.9,-103.34 -116.55,-132.43 -33.41,-71.21 -144.51,-232.56 -202.68,-280.01l-13.61 22.58 -181.25 5.12 6.67 2.46 -8.97 38.52c-9.65,19.02 11.58,47.16 24.05,54.8 31.45,19.25 26.24,25.32 42.43,53.04 19.68,33.71 42.47,75.45 61.43,110.98 11.13,20.85 95.16,234.59 91.39,247.97 -23.77,84.33 -233.14,17.31 -287.89,-2.44 -56.11,-20.25 -53.55,-43.75 -134.39,-63.55 -64.62,-15.82 -94.55,-18.7 -150.63,-57.05 -24.14,-16.51 -256.4,-105.73 -295,-115.22 -77.36,-19 -201.29,-93.41 -243.66,-162.52 -148.21,-241.78 -495.71,-2.56 -335.12,229.46 25.1,36.28 73.91,76.75 117.02,87.4 0.73,0.18 140.38,21.5 147.36,22.08 130.74,10.91 37.52,6.96 123.81,41.14 25.87,10.25 55.17,9.27 80.55,20.82 21.01,9.57 32.27,26.35 59.34,38.32 133.78,59.19 269.55,126.2 396.25,201 56.48,33.34 96.86,26.98 66.58,94.6 -67.52,150.74 -424.36,22.49 -541.03,112.42 -200.11,154.24 -100.68,442.77 152,466.73 135.91,12.89 329.99,-198.34 476.07,-267.85 165.54,-78.77 417.28,-2.56 582.34,43.55 226.13,63.17 328.77,163.36 600.11,157.96 410.52,-8.17 1116.39,-436.43 1428.15,-674.66 371.47,-283.85 307.49,-607.42 136.06,-991.93l-26.03 62.85 -4.49 -2.25 -641.76 3.4 3.63 16.01 -52.43 -41.18z"/>
   <path class="fil0 str0" d="M7494.64 6080.45c192.36,31.93 -621.37,519.84 -669.15,547.04 -202.53,115.27 -701.65,374.38 -830.32,38.73 -90.43,-235.91 -190.07,-155.97 -389.39,-278.35 -97.78,-60.03 -170.52,-52.58 -271.71,-84.1 -87.64,-27.3 -144.57,-96.33 -235.28,-117.24 -236.01,-54.4 -355.06,230.93 -225.9,369.39 66.61,71.41 176.81,55.27 265.51,60.36 106.11,6.09 178.29,42.06 277.79,71.82 84.59,25.3 486.66,118.59 272.11,268.79 -83.9,58.74 -326.58,148.37 -432.42,194.92 -68.95,30.33 -130.81,73.93 -208.12,72.73 -98.08,-1.54 -186.68,-35.64 -284.91,3.75 -186.57,74.83 -242.89,328.71 -126.56,484.15 134.05,179.12 348.65,113.14 483.08,-29.86 96.08,-102.22 285.72,-151.28 418.41,-188.43 129.13,-36.15 313.43,-56.17 451.28,-80.66 167.72,-29.79 320.27,-50.2 482.3,2.17 -129.01,202.85 -249.14,104.19 -277.62,454.67 -18.63,229.17 -265.36,361.17 -189.37,516.35 39.54,80.74 162.4,125.17 246.94,129.7 85.42,4.58 165.12,-78.17 211.12,-144.1 58.87,-84.37 18.43,-181.08 18.08,-280.4 -0.5,-140.48 -13.32,-145.35 33.93,-291.16 63.97,-197.41 209.73,-298.77 309.35,-472.01 96.62,-168.04 232.53,-227.52 372.29,-344.55 219.94,-184.15 525.55,-598.47 671.43,-847.41l12.86 -66.5 -385.73 10.2z"/>
   <path class="fil0 str0" d="M583.86 575.99c24.96,13.69 110.18,36.95 135.4,26.6 28.75,-11.8 29.48,-15.23 38.67,-53.61 17.56,-73.35 23.97,-5.15 37.11,-45.9l-15.59 -41.06c15.57,-35.02 67.81,-22.37 102.85,-12.22 83.58,24.22 59.32,38.11 88.23,48.47 29.73,10.65 137.71,103.68 152.64,125.3 17.53,25.37 123.78,121.99 127.52,128.07 23.89,38.81 17.98,53.87 54.79,77.85 11.7,7.62 48.74,58.07 42.75,78.96 -12.78,6.83 -291.83,-46.67 -329.18,-57 -112.31,-31.04 -197.78,-57.37 -283.95,-139.53 -217.02,-206.92 -337.68,31.94 -458.09,193.04 -59.21,79.22 -60.53,199.88 -155.62,260.24 -127.85,81.15 -14.98,250.74 111.76,187.68 49.57,-24.67 50.67,-71.07 91.86,-123.8 20.21,-25.87 -18.64,-66.83 34.67,-151.49 48.5,-77.03 129.37,-178.17 167.59,-259.35 364.06,76.58 247.46,253.8 698.51,238.91 121.27,-4 260.3,48.06 271.28,187.9 6.22,79.22 -93.51,278 -160.32,323.62 -90.48,61.78 -187.46,133.05 -279.36,191.08 -124.58,78.67 -274.11,58.36 -265.88,258.46 6.22,151.09 165.93,246.56 306.84,198.48 105.74,-36.08 173.83,-195.29 226.16,-283.3 121.65,-204.57 554.92,-28.75 715.49,-45.17 88.13,-9.02 148.47,-134.6 298.34,-154.95 158.97,-21.59 231.74,-5.52 383.53,35.65 73.69,20 122.47,20.49 181.85,74.64 49.38,45.03 69.23,77.87 144.02,73.45 77.19,-4.56 254.29,-54.86 340.09,-74.53 164.46,-37.71 552.15,-94.58 678.69,-149.18 -26.88,-44.03 -336.1,-68.36 -400.33,-74.36 -106.47,-9.93 -296.1,-67 -372.45,-145.55 -139.82,-143.82 -574.93,-234.27 -778.38,-291.68 -379.33,-107.04 -400.02,-73.65 -672.58,-365.39 -149.92,-160.46 -345.06,-330.26 -507.52,-486.72 -53.34,-51.37 -190.42,-226.31 -231.63,-248.72 -57.29,-31.16 -128.91,-15.52 -163.39,42.07 -42.59,71.14 80,83.12 123.1,103.87 39.68,19.1 500.45,415.15 528.42,463.81 59.99,104.38 -88.91,-14.16 -96.32,-23.77 -5.7,-7.39 -137.98,-72.33 -165.08,-96.17 -39.37,-34.65 -90.45,-64.69 -139.32,-112.58 -40.58,-39.77 -92.72,-79.71 -132.04,-119.69 -46.55,-47.31 -50.15,-13.84 -80.39,-44.64 -17.31,-17.62 -47.41,-52.3 -68.99,-61.23 -95.34,-39.47 -104.32,-25.55 -185.55,18.76 -75.64,41.26 -192.59,236.69 -140.19,324.68z"/>
   <path class="fil0 str0" d="M7073.29 2602.89l-7.94 -15.83 5.14 7.66 30.15 -28.07 204.67 -0.19 22.37 45.93 10.16 -1.94 14.13 -6.75c-33.05,-34.18 -11.01,-34.35 -54.81,-70.43 -44.99,-37.06 -185.58,-177.91 -212.72,-193.91 -86.79,-51.12 -207.17,-166.39 -302.79,-233.16 -15.17,-10.59 -49.22,-53.4 -64.24,-61.56 -52.84,-28.7 -25.59,7.87 -92.83,-46.14 -31.31,-25.15 -131.98,-75.34 -163.24,-103.52 -78.44,-70.71 -297.91,-119.86 -319.73,-223.56 32.51,-6.56 253.78,102.38 284.18,129.82 34.58,31.21 240.69,110.1 276.93,156.89 19.64,25.36 219.03,155.18 256.15,171.53 39.67,17.47 188.51,151.89 242.7,190.22 125.32,88.62 300.22,291.89 406.74,410.12 68.77,76.33 123.52,150.61 176.35,236.38 17.22,27.95 59.99,76.87 86.12,116.05 24.74,37.09 27.92,92.92 54.09,138.71 91.56,-69.54 300.16,-195.14 190.88,-322.79 -51.8,-60.51 -274.65,-229.5 -349.63,-287.87 -235.76,-183.52 -479.71,-362.49 -717.78,-545.11 -239.52,-183.73 -387.24,-425.83 -663.27,-587.18 -229.96,-134.41 -689.22,-318.71 -947.28,-382.19 -171.11,-42.09 -331.38,-125.97 -510.44,-96.9 -396.81,64.43 -169.3,607.45 61.36,651.8 94.16,18.11 361.32,23.58 476.53,31.71 314.65,22.2 686.1,146.85 924.69,356.86 121.81,107.22 178,186.73 322.26,290.57 122.81,88.4 239.69,182.75 361.08,272.85z"/>
   <path class="fil0 str0" d="M4282.22 3180.44c50.37,-9.89 223.71,30.28 277.94,47.19 12.4,3.87 188.55,129.75 199.91,143.27 55.25,65.79 -97.19,144.37 -131.87,181.8 -55.93,60.37 -152.06,65.26 -224.94,73.76 -81.02,9.45 -200.12,12.65 -270.49,-44.54 -38.23,-31.07 -62.43,-44.29 -100.68,-78.97 -31.56,-28.6 -55.31,-66.83 -77.44,-84.48 -162.16,-129.29 263.93,-225.54 327.57,-238.04zm-1.82 -202.96c-252.89,-1.41 -493.42,231.49 -614.5,435.15 -45.25,76.11 22.16,121.01 77.75,162.34 62.12,46.17 94.32,81.01 149.75,126.5 45.29,37.16 138.92,85.25 195.45,99.31 125.15,31.12 115.79,-4.07 208.2,9.11 69.33,9.89 119.14,-22.36 184.4,-42.71 120.46,-37.58 67.6,-31.57 156.15,-86.27 100.62,-62.15 196.45,-192.87 250.74,-295.34 52.62,-99.31 51.68,-80.63 -37.26,-158.29 -54.5,-47.59 -74.59,-91.08 -138.04,-134.75 -101.41,-69.78 -309.23,-114.35 -432.65,-115.03z"/>
   <path class="fil0 str0" d="M3369.09 649.06c-196.12,19.72 -265.84,300.37 -89.66,404.1 27.75,16.34 74.53,59.3 97.86,66.03 42.84,12.36 96.67,-5.65 137.78,8.38 68.73,23.46 107.13,117.75 151.18,169.02 28.03,32.62 118.6,138.99 135.79,169.57 53.84,95.82 107.28,42.22 212.32,82.1 119.13,45.23 133.36,11.14 238.07,102.64 32.41,28.32 168.63,6.85 223.52,4.65 25.38,-1.02 224.84,-2.41 224.73,-5.9 -0.55,-17.09 -182.03,-106.94 -208.02,-116.45 -7.26,-2.65 -419.55,-228.91 -430.18,-236.49 -134.96,-96.42 -279.13,-86.59 -366.45,-288.75 -46.64,-107.96 -72.07,-80.59 -110.79,-225.45 -23.75,-88.88 -127.52,-142.37 -216.15,-133.45z"/>
   <path class="fil0 str0" d="M4280.39 2977.47c123.41,0.68 331.24,45.25 432.65,115.03 63.46,43.67 83.55,87.16 138.04,134.75 88.94,77.66 89.88,58.98 37.26,158.29 -54.29,102.47 -150.12,233.19 -250.74,295.34 -88.56,54.7 -35.7,48.7 -156.15,86.27 -65.25,20.36 -115.07,52.6 -184.4,42.71 -92.4,-13.18 -83.04,22.01 -208.2,-9.11 -56.54,-14.06 -150.17,-62.15 -195.45,-99.31 -55.43,-45.49 -87.63,-80.33 -149.75,-126.5 -55.59,-41.32 -123,-86.23 -77.75,-162.34 121.08,-203.66 361.61,-436.56 614.5,-435.15zm-1553.19 635.43l29.86 -38.49c48.62,-0.5 11.77,23.16 68.06,2.29 0.07,-0.03 60.96,-11.64 66.06,-11.98 35.06,-2.31 74.86,-30.37 124.15,-34.41 24.21,-1.99 213.43,-70.47 235.71,-82.76 152.69,-84.22 299.66,-178.09 455.96,-235.66 3.8,10.94 -102.58,120.09 -116.73,174.2 -8.14,31.13 -35.6,98.05 -30.68,123.39 10.48,54 60.41,70.91 66.64,80.48 -3.98,3.07 -192.41,11.93 -222.46,28.64 -65.48,36.41 -52.22,20.93 -100.16,38.44 -49.7,18.16 -64.25,7.35 -105.84,8.37 -34.23,0.84 -2.79,23.37 -56.78,6.62 -32.5,-10.08 -29.49,-17.79 -53.39,-3.52 -34.88,20.84 -78.94,-30.59 -112.84,-10.4 -47.65,28.38 -202.17,-85.1 -231.6,-28.26 42.98,33.24 212.75,67.33 276.45,88.82 25.98,8.77 209.27,-2.19 240.71,-7.8 157.58,-28.11 313.98,-99.5 471.91,-26.18 51.83,24.06 147.77,111.19 212.4,131.45 40.06,12.56 38.25,33.99 116.29,56.11 29.97,8.49 108.39,37.51 133.34,32.37 61.63,-12.68 151,-21.1 221.79,-33.94 72.4,-13.13 166.09,-66.39 217.25,-71.72 15.97,-36.28 78.71,-64.92 107.84,-85.75 22.14,-15.83 72.33,-85.21 95.21,-106.65 115.42,-108.2 100.81,-134.57 146.32,-289.95 15.64,-53.38 -147.24,-182.72 -187.64,-212.02 -26.79,-19.43 -1.63,-31.24 -43.05,-56.09 -3.75,-2.25 -50.08,-44.49 -51.78,-46.58 -28.29,-34.78 -29.21,-21.74 -74.49,-34.74 -48.94,-14.04 -18.98,-35.31 -54.19,-41.31 -80.69,-21.23 -74.39,-25.89 -155.82,-24.42 -18.97,0.34 -123.25,-5.88 -137.47,-10.95 -65.74,-23.41 -191.15,19.13 -250.97,52.54 -66.53,37.15 -145.88,93.1 -199.42,145.91 -30.95,30.52 -191.33,74.13 -238.99,97.16 -71.67,34.61 -128.61,89.94 -205.02,133.97 -46.83,26.99 -190.44,101.01 -235.28,109.96 -27.02,5.39 -231.39,63.04 -250.04,71 -66.02,28.16 -214.93,14.51 -234.61,91.95l63.31 19.89z"/>
   <path class="fil0 str0" d="M5980.42 3416.87c101.83,53.89 245.05,76.47 344.39,58.91 58.25,-10.29 88.04,-26.93 149.17,-9.13 20.9,6.09 71.9,23.34 89.57,25.94 41.41,6.11 6.54,-24.7 76.15,-2.7 52.37,16.55 342.16,89.23 361.95,106.36 10.04,8.69 140.45,84.41 147.52,86.33 29.56,8.03 61.12,17.09 90.66,24.43 69.7,17.3 16.92,31.16 71.72,42.99l-24.75 -56.46 612.5 -1.29 23.58 41.81 -19.21 -337.4 -1923.25 20.2z"/>
   <path class="fil0 str0" d="M4282.22 3180.44c-63.64,12.5 -489.73,108.74 -327.57,238.04 22.13,17.65 45.89,55.88 77.44,84.48 38.25,34.68 62.45,47.9 100.68,78.97 70.37,57.2 189.47,54 270.49,44.54 72.88,-8.5 169.01,-13.38 224.94,-73.76 34.68,-37.43 187.12,-116.01 131.87,-181.8 -11.36,-13.52 -187.51,-139.41 -199.91,-143.27 -54.24,-16.91 -227.57,-57.09 -277.94,-47.19z"/>
   <path class="fil0 str0" d="M2613.35 5302.74l8.97 -38.52 -6.67 -2.46 181.25 -5.12 13.61 -22.58 60.8 -97.39 -41.62 -23.23c-0.59,-82.29 63.84,-142.18 -31.33,-248.06 -60.44,-67.25 -151.49,-88.22 -235.38,-53.29 -75.83,31.57 -129.31,101.57 -138.34,183.51 -15.28,138.67 49.39,143.66 106.07,216.67l-14.04 41.9 96.67 48.58z"/>
   <path class="fil0 str0" d="M2727.2 3612.9l15.95 16.98c29.43,-56.84 183.95,56.63 231.6,28.26 33.91,-20.19 77.96,31.24 112.84,10.4 23.9,-14.27 20.89,-6.57 53.39,3.52 53.99,16.75 22.55,-5.78 56.78,-6.62 41.6,-1.02 56.15,9.79 105.84,-8.37 47.93,-17.52 34.68,-2.03 100.16,-38.44 30.05,-16.71 218.48,-25.57 222.46,-28.64 -6.23,-9.58 -56.16,-26.49 -66.64,-80.48 -4.92,-25.33 22.54,-92.26 30.68,-123.39 14.14,-54.12 120.53,-163.26 116.73,-174.2 -156.31,57.58 -303.27,151.45 -455.96,235.66 -22.28,12.29 -211.5,80.77 -235.71,82.76 -49.29,4.04 -89.09,32.09 -124.15,34.41 -5.1,0.34 -65.99,11.95 -66.06,11.98 -56.29,20.87 -19.44,-2.79 -68.06,-2.29l-29.86 38.49z"/>
   <path class="fil0 str0" d="M2193.52 1896.45c-0.6,0.17 -103.02,60.24 -104.06,61.22 -17.53,16.74 14.52,65.47 19.97,107.65 20.76,160.89 31.44,74.98 -10.94,248.05 -20.18,82.41 -73.84,166.04 -167.09,171.41 -75.78,4.36 -77.18,-21.76 -57.58,60.58 9.72,40.82 24.67,84.75 31.9,120.35 19.48,95.89 277.78,-250.79 290.08,-321 7.17,-40.91 106.13,-185.8 90.91,-255.82 -11.42,-52.52 31.32,-227.52 -93.2,-192.44z"/>
   <path class="fil0 str0" d="M7311.56 3750.01c-54.8,-11.84 -2.03,-25.69 -71.72,-42.99 -29.54,-7.34 -61.1,-16.4 -90.66,-24.43 -7.08,-1.92 -137.49,-77.64 -147.52,-86.33 -19.79,-17.12 -309.58,-89.81 -361.95,-106.36 -69.61,-22 -34.74,8.81 -76.15,2.7 -17.67,-2.61 -68.68,-19.86 -89.57,-25.94 -61.13,-17.8 -90.92,-1.16 -149.17,9.13 -99.33,17.55 -242.55,-5.03 -344.39,-58.91 -46.28,47.6 -22.03,1.43 -70.45,10.67 -6.21,1.19 -52.58,31.56 -66.72,37.4 -35.14,14.53 -105.19,0.82 -114.77,81.2 18.68,5.52 140.48,-44.82 163.59,-56.88 28,-14.62 179.51,38.18 218.55,49.31 99.95,28.48 106.25,47.11 208.49,23.92 56.82,-12.89 37.08,21.64 92.33,-15 12.21,-8.09 77.24,-19.65 92.45,-15.94 83.36,20.34 116.32,10.07 214.82,38.85 74.33,21.71 149.14,41.72 223.53,63.22 57.88,16.73 384.62,177.74 396.37,142.03l-27.06 -25.64z"/>
   <path class="fil0 str0" d="M2169.11 3088.7c11.13,-11.65 26.73,-79.24 31.91,-99.12 23.18,-88.85 27.66,-8.45 46.98,-80.6 17.25,-64.44 47.72,-148.88 59.98,-210.68 8.99,-45.29 -23.49,-5.94 2.21,-93.54 15.42,-52.58 25.97,-57.17 12.36,-99.61 -11.81,-36.8 3.5,-32.29 -30.42,-86.48 -5.05,-8.07 -47.54,40.88 -50.6,50.66 -20.42,65.32 3.87,41.35 -55.88,72.84 -2.48,1.31 -53.51,72.3 -55.56,76.44 -40.32,81.22 -9.89,14.66 -60.97,63.34 -25.78,24.57 18.58,35.29 19.28,77.19 0.6,36.59 60.22,311.1 80.71,329.56z"/>
   <path class="fil0 str0" d="M5898.36 6415.85c0.63,-1.22 -43.26,-313.42 -48.2,-335.92 -8.34,-37.96 -39.64,7.18 -63.97,-49.72 -11.32,-26.49 -28.14,-51.16 -41.86,-76.75 -33.15,-61.84 -97.23,-78.52 -146.17,-21.28 -120.22,140.63 -66.51,142.72 82.95,246.38 7.2,4.99 123.2,111.02 124.74,113.34 7.69,11.58 90.11,124.28 92.51,123.95z"/>
   <path class="fil0 str0" d="M3938.56 2821.68c32.34,50.58 88.61,-23.08 134.47,-24.94 36.97,-1.51 101.7,-22.96 137.74,-27.76 28.13,-3.74 289.25,8.97 271.48,-25.33 -21.46,-41.43 -282.05,-45.8 -301.75,-34.12 -36.05,21.38 -241.76,58.84 -241.94,112.15z"/>
  </g>
  <path class="fil1 str1" d="M3938.56 2821.68c0.18,-53.31 205.89,-90.78 241.94,-112.15 19.7,-11.68 280.29,-7.31 301.75,34.12 17.77,34.3 -243.35,21.59 -271.48,25.33 -36.04,4.8 -100.77,26.26 -137.74,27.76 -45.86,1.87 -102.13,75.52 -134.47,24.94zm745.74 1010.75l9.69 -15.24 -60.71 -18.21c-51.16,5.33 -144.85,58.59 -217.25,71.72 -70.79,12.84 -160.16,21.26 -221.79,33.94 -24.95,5.14 -103.38,-23.87 -133.34,-32.37 -78.04,-22.11 -76.23,-43.54 -116.29,-56.11 -64.62,-20.26 -160.57,-107.39 -212.4,-131.45 -157.93,-73.32 -314.34,-1.93 -471.91,26.18 -31.44,5.61 -214.73,16.57 -240.71,7.8 -63.7,-21.49 -233.47,-55.58 -276.45,-88.82l-15.95 -16.98 -63.31 -19.89c19.68,-77.44 168.59,-63.79 234.61,-91.95 18.65,-7.96 223.02,-65.61 250.04,-71 44.85,-8.95 188.45,-82.97 235.28,-109.96 76.4,-44.03 133.35,-99.36 205.02,-133.97 47.66,-23.02 208.05,-66.63 238.99,-97.16 53.54,-52.81 132.9,-108.76 199.42,-145.91 59.81,-33.41 185.22,-75.95 250.97,-52.54 14.22,5.07 118.5,11.29 137.47,10.95 81.42,-1.47 75.12,3.18 155.82,24.42l18.14 -32.01 2651.34 -0.27c73.13,0 331.11,36.71 351.97,-37.69l-240.98 -252.22 -14.13 6.75 -10.16 1.94 -22.37 -45.93 -204.67 0.19 -30.15 28.07 -5.14 -7.66 7.94 15.83 145.92 140.14 -13.55 13.95c-42.1,30.67 -590.4,-380.22 -684.17,-466.99 -58.36,-54.01 -126.92,-138.58 -182.76,-181.49 -228.76,-175.78 -254.09,-177.53 -521.45,-270.98 -120.33,-42.06 -472.42,-93.58 -602.79,-89.53 -100.56,3.13 -213.82,-33.36 -293.24,-23.96 -81.86,9.69 -192.69,6.46 -277.91,6.49 -188.67,0.05 -362.72,16.24 -546.41,59.77 -346.28,82.06 -675.48,181.25 -1027.72,255.64l42.74 64.32 586.89 -105.84 3.93 21.79c-2.09,39.17 -139.99,44.18 -174.17,51.41 -68.3,14.46 -113.69,30.46 -182.24,45.15 -57.98,12.42 -127.92,26.51 -186.48,35.68 -94.24,14.77 -90.91,75.55 -159.75,-41.59 -54.86,-93.34 -133.64,-255.29 -243.2,-280.98 -84.17,-19.74 -331.06,-64.68 -402.98,-6.64 -3.19,43.36 25.01,31.83 25.37,69.79 0.48,49.95 -23.71,16.17 -5.58,84.69 0.42,1.56 -17.05,164.58 -20.16,174.84 -71.59,236.33 -48.76,128.9 11.2,326.82 27,89.11 -36.34,259.43 -65,360.24l-79.36 278.77c-22.05,67.77 14.59,40.64 1.03,78.76 -52.55,21.28 -99.58,-52.44 -102.33,-80.01 -7.2,-72.33 -31.34,-58.36 -40.27,-127.54 -0.13,-1.03 -12.61,-61.48 -14.38,-65.72 -15.98,-38.43 16.1,-38.56 -0.19,-67.7 -12.38,-22.16 -15.65,-93.41 -28.95,-124.87 -186.26,115.65 -206.67,190.46 -151.75,407.05 37.2,146.7 99.51,329.21 128.62,470.62 67.06,325.67 485.25,538.5 782.88,591.47 92.74,16.5 172.65,12.53 271.23,30.67 210.8,38.8 557.19,30.09 762.7,0.49 398.53,-57.4 540.52,-183.13 855.27,-405.19z"/>
  <path class="fil1 str1" d="M4571.51 2925.89c35.21,6 5.25,27.26 54.19,41.31 45.28,13 46.2,-0.04 74.49,34.74 1.7,2.09 48.02,44.33 51.78,46.58 41.42,24.85 16.25,36.66 43.05,56.09 40.39,29.29 203.28,158.64 187.64,212.02 -45.51,155.38 -30.9,181.75 -146.32,289.95 -22.88,21.44 -73.07,90.82 -95.21,106.65 -29.13,20.83 -91.87,49.48 -107.84,85.75l60.71 18.21 -9.69 15.24 352.9 -279.14c130.15,58.03 -402.37,438.31 -461.53,471.33 -64.3,35.9 -93.59,71.75 -143.45,98.79 -55.11,29.89 -90.9,30.99 -156.23,68.06 -89.74,50.9 -277.99,74.49 -335.81,119.15l549.32 678.01 52.43 41.18 -3.63 -16.01 641.76 -3.4 4.49 2.25 26.03 -62.85 -234.76 -381.16 19.07 -11.56c64.57,7.31 189.05,155.11 219.61,215.44 83.85,165.56 125.6,123.59 287.64,179.43 112.35,38.72 519.59,2.61 643.72,-34.92 146.36,-44.25 449.82,-151.66 554.86,-258.66 66.64,-67.88 147.44,-117.01 230.59,-206.09 55.93,-59.92 157.92,-199.59 211.86,-231.78l666.98 -22.13 5.34 2.69 -10.57 44.97c53.4,0.92 16.25,-54.49 54.66,-78.31 24.21,-15.02 35.68,-60.66 42.67,-97.42 10.13,-53.24 -105.07,-121.96 -96.72,-156.76l10.24 7.35 107.14 -186.83 -23.58 -41.81 -612.5 1.29 24.75 56.46 27.06 25.64c-11.76,35.71 -338.49,-125.3 -396.37,-142.03 -74.39,-21.5 -149.21,-41.51 -223.53,-63.22 -98.51,-28.77 -131.47,-18.51 -214.82,-38.85 -15.21,-3.71 -80.24,7.84 -92.45,15.94 -55.25,36.64 -35.51,2.11 -92.33,15 -102.24,23.19 -108.54,4.56 -208.49,-23.92 -39.04,-11.12 -190.55,-63.92 -218.55,-49.31 -23.11,12.06 -144.91,62.41 -163.59,56.88 9.58,-80.38 79.63,-66.67 114.77,-81.2 14.14,-5.85 60.51,-36.21 66.72,-37.4 48.42,-9.24 24.18,36.93 70.45,-10.67l1923.25 -20.2c8.59,-18.08 -39.53,-129.05 -50.13,-148.34 -25.65,-46.66 -51.54,-94.21 -77.31,-140.93 -18.8,-34.1 -158.99,-244.88 -183.29,-251.48 -20.86,74.4 -278.84,37.69 -351.97,37.69l-2651.34 0.27 -18.14 32.01z"/>
  <path class="fil1 str1" d="M7143.17 4220.5c14.07,74.47 -237.75,377.83 -303.86,440.49 -172.21,163.24 -253.37,146.67 -423.12,356.49 -127.69,157.83 -238.64,274.91 -324.2,464.23 -48.15,106.55 -185.15,540 -163.23,640.59 39.02,179.06 59.83,341.11 152.52,503.98 121.64,213.73 313.37,111.11 493.94,39.12 252.35,-100.6 691.49,-414.66 919.42,-584.95l385.73 -10.2 -12.86 66.5c92.47,-138.71 245.38,-332.68 359.53,-453.75 136.3,-144.56 233.01,-296.25 345.77,-455.23 123.79,-174.54 217.59,-380.04 127.58,-586.47 -66.45,-152.39 -139.5,-429.58 -358.99,-372.65 -224.51,58.23 -770.83,398.88 -917.84,581.84 -117.06,145.69 -250.53,274.71 -386.12,403.1 -82.12,77.75 -123.81,111.58 -188.43,209.18 -26.7,40.32 -67.04,75.58 -85.44,115.36 -24.24,52.45 -28.73,95.1 -65.3,145.15l-48.84 -15.43c-42.75,-101.24 162.55,-350.09 230.2,-420.89 97.2,-101.74 210.72,-222.65 316.14,-313.67 49.39,-42.65 270.43,-276.58 321.45,-338.59 97.57,-118.56 239.07,-242.24 287.68,-388.67l10.57 -44.97 -5.34 -2.69 -666.98 22.13z"/>
  <path class="fil1 str1" d="M4489.49 4988.64c16.92,12.97 17.74,33.68 28.57,50.1 15.55,23.57 27.25,5.7 42.25,38.69 19.38,42.63 49.24,49.68 79.84,80.55 61.62,62.17 -66.78,112.68 -129.12,145.78 -66.04,35.07 -130.61,73.88 -196.8,109.9 -83.14,45.24 -123.2,86.43 -203.19,131.4 -104.38,58.7 -716.41,506.16 -774.97,491.41 -8.41,-86.02 311.73,-257.68 330.09,-280.85 43.4,-54.76 176.41,-84.32 152.2,-142.14 -26.68,-63.72 67.09,-197.18 56.68,-266.52 -131.73,-97.91 -320.44,456.6 -549.82,381.97 -85.19,-27.71 -128.9,-18.9 -195.48,-82.44 -26.96,-25.72 -102.9,-103.34 -116.55,-132.43 -33.41,-71.21 -144.51,-232.56 -202.68,-280.01l-13.61 22.58 -181.25 5.12 6.67 2.46 -8.97 38.52c-9.65,19.02 11.58,47.16 24.05,54.8 31.45,19.25 26.24,25.32 42.43,53.04 19.68,33.71 42.47,75.45 61.43,110.98 11.13,20.85 95.16,234.59 91.39,247.97 -23.77,84.33 -233.14,17.31 -287.89,-2.44 -56.11,-20.25 -53.55,-43.75 -134.39,-63.55 -64.62,-15.82 -94.55,-18.7 -150.63,-57.05 -24.14,-16.51 -256.4,-105.73 -295,-115.22 -77.36,-19 -201.29,-93.41 -243.66,-162.52 -148.21,-241.78 -495.71,-2.56 -335.12,229.46 25.1,36.28 73.91,76.75 117.02,87.4 0.73,0.18 140.38,21.5 147.36,22.08 130.74,10.91 37.52,6.96 123.81,41.14 25.87,10.25 55.17,9.27 80.55,20.82 21.01,9.57 32.27,26.35 59.34,38.32 133.78,59.19 269.55,126.2 396.25,201 56.48,33.34 96.86,26.98 66.58,94.6 -67.52,150.74 -424.36,22.49 -541.03,112.42 -200.11,154.24 -100.68,442.77 152,466.73 135.91,12.89 329.99,-198.34 476.07,-267.85 165.54,-78.77 417.28,-2.56 582.34,43.55 226.13,63.17 328.77,163.36 600.11,157.96 410.52,-8.17 1116.39,-436.43 1428.15,-674.66 371.47,-283.85 307.49,-607.42 136.06,-991.93l-26.03 62.85 -4.49 -2.25 -641.76 3.4 3.63 16.01 -52.43 -41.18z"/>
  <path class="fil1 str1" d="M7494.64 6080.45c192.36,31.93 -621.37,519.84 -669.15,547.04 -202.53,115.27 -701.65,374.38 -830.32,38.73 -90.43,-235.91 -190.07,-155.97 -389.39,-278.35 -97.78,-60.03 -170.52,-52.58 -271.71,-84.1 -87.64,-27.3 -144.57,-96.33 -235.28,-117.24 -236.01,-54.4 -355.06,230.93 -225.9,369.39 66.61,71.41 176.81,55.27 265.51,60.36 106.11,6.09 178.29,42.06 277.79,71.82 84.59,25.3 486.66,118.59 272.11,268.79 -83.9,58.74 -326.58,148.37 -432.42,194.92 -68.95,30.33 -130.81,73.93 -208.12,72.73 -98.08,-1.54 -186.68,-35.64 -284.91,3.75 -186.57,74.83 -242.89,328.71 -126.56,484.15 134.05,179.12 348.65,113.14 483.08,-29.86 96.08,-102.22 285.72,-151.28 418.41,-188.43 129.13,-36.15 313.43,-56.17 451.28,-80.66 167.72,-29.79 320.27,-50.2 482.3,2.17 -129.01,202.85 -249.14,104.19 -277.62,454.67 -18.63,229.17 -265.36,361.17 -189.37,516.35 39.54,80.74 162.4,125.17 246.94,129.7 85.42,4.58 165.12,-78.17 211.12,-144.1 58.87,-84.37 18.43,-181.08 18.08,-280.4 -0.5,-140.48 -13.32,-145.35 33.93,-291.16 63.97,-197.41 209.73,-298.77 309.35,-472.01 96.62,-168.04 232.53,-227.52 372.29,-344.55 219.94,-184.15 525.55,-598.47 671.43,-847.41l12.86 -66.5 -385.73 10.2z"/>
  <path class="fil1" d="M583.86 575.99c24.96,13.69 110.18,36.95 135.4,26.6 28.75,-11.8 29.48,-15.23 38.67,-53.61 17.56,-73.35 23.97,-5.15 37.11,-45.9l-15.59 -41.06c15.57,-35.02 67.81,-22.37 102.85,-12.22 83.58,24.22 59.32,38.11 88.23,48.47 29.73,10.65 137.71,103.68 152.64,125.3 17.53,25.37 123.78,121.99 127.52,128.07 23.89,38.81 17.98,53.87 54.79,77.85 11.7,7.62 48.74,58.07 42.75,78.96 -12.78,6.83 -291.83,-46.67 -329.18,-57 -112.31,-31.04 -197.78,-57.37 -283.95,-139.53 -217.02,-206.92 -337.68,31.94 -458.09,193.04 -59.21,79.22 -60.53,199.88 -155.62,260.24 -127.85,81.15 -14.98,250.74 111.76,187.68 49.57,-24.67 50.67,-71.07 91.86,-123.8 20.21,-25.87 -18.64,-66.83 34.67,-151.49 48.5,-77.03 129.37,-178.17 167.59,-259.35 364.06,76.58 247.46,253.8 698.51,238.91 121.27,-4 260.3,48.06 271.28,187.9 6.22,79.22 -93.51,278 -160.32,323.62 -90.48,61.78 -187.46,133.05 -279.36,191.08 -124.58,78.67 -274.11,58.36 -265.88,258.46 6.22,151.09 165.93,246.56 306.84,198.48 105.74,-36.08 173.83,-195.29 226.16,-283.3 121.65,-204.57 554.92,-28.75 715.49,-45.17 88.13,-9.02 148.47,-134.6 298.34,-154.95 158.97,-21.59 231.74,-5.52 383.53,35.65 73.69,20 122.47,20.49 181.85,74.64 49.38,45.03 69.23,77.87 144.02,73.45 77.19,-4.56 254.29,-54.86 340.09,-74.53 164.46,-37.71 552.15,-94.58 678.69,-149.18 -26.88,-44.03 -336.1,-68.36 -400.33,-74.36 -106.47,-9.93 -296.1,-67 -372.45,-145.55 -139.82,-143.82 -574.93,-234.27 -778.38,-291.68 -379.33,-107.04 -400.02,-73.65 -672.58,-365.39 -149.92,-160.46 -345.06,-330.26 -507.52,-486.72 -53.34,-51.37 -190.42,-226.31 -231.63,-248.72 -57.29,-31.16 -128.91,-15.52 -163.39,42.07 -42.59,71.14 80,83.12 123.1,103.87 39.68,19.1 500.45,415.15 528.42,463.81 59.99,104.38 -88.91,-14.16 -96.32,-23.77 -5.7,-7.39 -137.98,-72.33 -165.08,-96.17 -39.37,-34.65 -90.45,-64.69 -139.32,-112.58 -40.58,-39.77 -92.72,-79.71 -132.04,-119.69 -46.55,-47.31 -50.15,-13.84 -80.39,-44.64 -17.31,-17.62 -47.41,-52.3 -68.99,-61.23 -95.34,-39.47 -104.32,-25.55 -185.55,18.76 -75.64,41.26 -192.59,236.69 -140.19,324.68z"/>
  <path class="fil1" d="M7073.29 2602.89l-7.94 -15.83 5.14 7.66 30.15 -28.07 204.67 -0.19 22.37 45.93 10.16 -1.94 14.13 -6.75c-33.05,-34.18 -11.01,-34.35 -54.81,-70.43 -44.99,-37.06 -185.58,-177.91 -212.72,-193.91 -86.79,-51.12 -207.17,-166.39 -302.79,-233.16 -15.17,-10.59 -49.22,-53.4 -64.24,-61.56 -52.84,-28.7 -25.59,7.87 -92.83,-46.14 -31.31,-25.15 -131.98,-75.34 -163.24,-103.52 -78.44,-70.71 -297.91,-119.86 -319.73,-223.56 32.51,-6.56 253.78,102.38 284.18,129.82 34.58,31.21 240.69,110.1 276.93,156.89 19.64,25.36 219.03,155.18 256.15,171.53 39.67,17.47 188.51,151.89 242.7,190.22 125.32,88.62 300.22,291.89 406.74,410.12 68.77,76.33 123.52,150.61 176.35,236.38 17.22,27.95 59.99,76.87 86.12,116.05 24.74,37.09 27.92,92.92 54.09,138.71 91.56,-69.54 300.16,-195.14 190.88,-322.79 -51.8,-60.51 -274.65,-229.5 -349.63,-287.87 -235.76,-183.52 -479.71,-362.49 -717.78,-545.11 -239.52,-183.73 -387.24,-425.83 -663.27,-587.18 -229.96,-134.41 -689.22,-318.71 -947.28,-382.19 -171.11,-42.09 -331.38,-125.97 -510.44,-96.9 -396.81,64.43 -169.3,607.45 61.36,651.8 94.16,18.11 361.32,23.58 476.53,31.71 314.65,22.2 686.1,146.85 924.69,356.86 121.81,107.22 178,186.73 322.26,290.57 122.81,88.4 239.69,182.75 361.08,272.85z"/>
  <ellipse class="fil0 str2" cx="2014.03" cy="2268.45" rx="211.32" ry="267.89"/>
  <path class="fil2" d="M4282.22 3180.44c50.37,-9.89 223.71,30.28 277.94,47.19 12.4,3.87 188.55,129.75 199.91,143.27 55.25,65.79 -97.19,144.37 -131.87,181.8 -55.93,60.37 -152.06,65.26 -224.94,73.76 -81.02,9.45 -200.12,12.65 -270.49,-44.54 -38.23,-31.07 -62.43,-44.29 -100.68,-78.97 -31.56,-28.6 -55.31,-66.83 -77.44,-84.48 -162.16,-129.29 263.93,-225.54 327.57,-238.04zm-1.82 -202.96c-252.89,-1.41 -493.42,231.49 -614.5,435.15 -45.25,76.11 22.16,121.01 77.75,162.34 62.12,46.17 94.32,81.01 149.75,126.5 45.29,37.16 138.92,85.25 195.45,99.31 125.15,31.12 115.79,-4.07 208.2,9.11 69.33,9.89 119.14,-22.36 184.4,-42.71 120.46,-37.58 67.6,-31.57 156.15,-86.27 100.62,-62.15 196.45,-192.87 250.74,-295.34 52.62,-99.31 51.68,-80.63 -37.26,-158.29 -54.5,-47.59 -74.59,-91.08 -138.04,-134.75 -101.41,-69.78 -309.23,-114.35 -432.65,-115.03z"/>
  <path class="fil1" d="M3369.09 649.06c-196.12,19.72 -265.84,300.37 -89.66,404.1 27.75,16.34 74.53,59.3 97.86,66.03 42.84,12.36 96.67,-5.65 137.78,8.38 68.73,23.46 107.13,117.75 151.18,169.02 28.03,32.62 118.6,138.99 135.79,169.57 53.84,95.82 107.28,42.22 212.32,82.1 119.13,45.23 133.36,11.14 238.07,102.64 32.41,28.32 168.63,6.85 223.52,4.65 25.38,-1.02 224.84,-2.41 224.73,-5.9 -0.55,-17.09 -182.03,-106.94 -208.02,-116.45 -7.26,-2.65 -419.55,-228.91 -430.18,-236.49 -134.96,-96.42 -279.13,-86.59 -366.45,-288.75 -46.64,-107.96 -72.07,-80.59 -110.79,-225.45 -23.75,-88.88 -127.52,-142.37 -216.15,-133.45z"/>
  <path class="fil3" d="M4280.39 2977.47c123.41,0.68 331.24,45.25 432.65,115.03 63.46,43.67 83.55,87.16 138.04,134.75 88.94,77.66 89.88,58.98 37.26,158.29 -54.29,102.47 -150.12,233.19 -250.74,295.34 -88.56,54.7 -35.7,48.7 -156.15,86.27 -65.25,20.36 -115.07,52.6 -184.4,42.71 -92.4,-13.18 -83.04,22.01 -208.2,-9.11 -56.54,-14.06 -150.17,-62.15 -195.45,-99.31 -55.43,-45.49 -87.63,-80.33 -149.75,-126.5 -55.59,-41.32 -123,-86.23 -77.75,-162.34 121.08,-203.66 361.61,-436.56 614.5,-435.15zm-1553.19 635.43l29.86 -38.49c48.62,-0.5 11.77,23.16 68.06,2.29 0.07,-0.03 60.96,-11.64 66.06,-11.98 35.06,-2.31 74.86,-30.37 124.15,-34.41 24.21,-1.99 213.43,-70.47 235.71,-82.76 152.69,-84.22 299.66,-178.09 455.96,-235.66 3.8,10.94 -102.58,120.09 -116.73,174.2 -8.14,31.13 -35.6,98.05 -30.68,123.39 10.48,54 60.41,70.91 66.64,80.48 -3.98,3.07 -192.41,11.93 -222.46,28.64 -65.48,36.41 -52.22,20.93 -100.16,38.44 -49.7,18.16 -64.25,7.35 -105.84,8.37 -34.23,0.84 -2.79,23.37 -56.78,6.62 -32.5,-10.08 -29.49,-17.79 -53.39,-3.52 -34.88,20.84 -78.94,-30.59 -112.84,-10.4 -47.65,28.38 -202.17,-85.1 -231.6,-28.26 42.98,33.24 212.75,67.33 276.45,88.82 25.98,8.77 209.27,-2.19 240.71,-7.8 157.58,-28.11 313.98,-99.5 471.91,-26.18 51.83,24.06 147.77,111.19 212.4,131.45 40.06,12.56 38.25,33.99 116.29,56.11 29.97,8.49 108.39,37.51 133.34,32.37 61.63,-12.68 151,-21.1 221.79,-33.94 72.4,-13.13 166.09,-66.39 217.25,-71.72 15.97,-36.28 78.71,-64.92 107.84,-85.75 22.14,-15.83 72.33,-85.21 95.21,-106.65 115.42,-108.2 100.81,-134.57 146.32,-289.95 15.64,-53.38 -147.24,-182.72 -187.64,-212.02 -26.79,-19.43 -1.63,-31.24 -43.05,-56.09 -3.75,-2.25 -50.08,-44.49 -51.78,-46.58 -28.29,-34.78 -29.21,-21.74 -74.49,-34.74 -48.94,-14.04 -18.98,-35.31 -54.19,-41.31 -80.69,-21.23 -74.39,-25.89 -155.82,-24.42 -18.97,0.34 -123.25,-5.88 -137.47,-10.95 -65.74,-23.41 -191.15,19.13 -250.97,52.54 -66.53,37.15 -145.88,93.1 -199.42,145.91 -30.95,30.52 -191.33,74.13 -238.99,97.16 -71.67,34.61 -128.61,89.94 -205.02,133.97 -46.83,26.99 -190.44,101.01 -235.28,109.96 -27.02,5.39 -231.39,63.04 -250.04,71 -66.02,28.16 -214.93,14.51 -234.61,91.95l63.31 19.89z"/>
  <path class="fil1 str1" d="M5980.42 3416.87c101.83,53.89 245.05,76.47 344.39,58.91 58.25,-10.29 88.04,-26.93 149.17,-9.13 20.9,6.09 71.9,23.34 89.57,25.94 41.41,6.11 6.54,-24.7 76.15,-2.7 52.37,16.55 342.16,89.23 361.95,106.36 10.04,8.69 140.45,84.41 147.52,86.33 29.56,8.03 61.12,17.09 90.66,24.43 69.7,17.3 16.92,31.16 71.72,42.99l-24.75 -56.46 612.5 -1.29 23.58 41.81 -19.21 -337.4 -1923.25 20.2z"/>
  <path class="fil3" d="M4282.22 3180.44c-63.64,12.5 -489.73,108.74 -327.57,238.04 22.13,17.65 45.89,55.88 77.44,84.48 38.25,34.68 62.45,47.9 100.68,78.97 70.37,57.2 189.47,54 270.49,44.54 72.88,-8.5 169.01,-13.38 224.94,-73.76 34.68,-37.43 187.12,-116.01 131.87,-181.8 -11.36,-13.52 -187.51,-139.41 -199.91,-143.27 -54.24,-16.91 -227.57,-57.09 -277.94,-47.19z"/>
  <path class="fil4" d="M4011.14 6626l-7.09 18.19c4.96,20.63 424.95,752.66 446.81,776.22 1.9,-113.02 -8.11,-963.29 5.4,-992.53l-3.04 -2.32 -442.08 200.45z"/>
  <path class="fil1" d="M2608.14 5302.74l8.97 -38.52 -6.67 -2.46 181.25 -5.12 13.61 -22.58 60.8 -97.39 -41.62 -23.23c-0.59,-82.29 63.84,-142.18 -31.33,-248.06 -60.44,-67.25 -151.49,-88.22 -235.38,-53.29 -75.83,31.57 -129.31,101.57 -138.34,183.51 -15.28,138.67 49.39,143.66 106.07,216.67l-14.04 41.9 96.67 48.58z"/>
  <path class="fil5" d="M2727.2 3612.9l15.95 16.98c29.43,-56.84 183.95,56.63 231.6,28.26 33.91,-20.19 77.96,31.24 112.84,10.4 23.9,-14.27 20.89,-6.57 53.39,3.52 53.99,16.75 22.55,-5.78 56.78,-6.62 41.6,-1.02 56.15,9.79 105.84,-8.37 47.93,-17.52 34.68,-2.03 100.16,-38.44 30.05,-16.71 218.48,-25.57 222.46,-28.64 -6.23,-9.58 -56.16,-26.49 -66.64,-80.48 -4.92,-25.33 22.54,-92.26 30.68,-123.39 14.14,-54.12 120.53,-163.26 116.73,-174.2 -156.31,57.58 -303.27,151.45 -455.96,235.66 -22.28,12.29 -211.5,80.77 -235.71,82.76 -49.29,4.04 -89.09,32.09 -124.15,34.41 -5.1,0.34 -65.99,11.95 -66.06,11.98 -56.29,20.87 -19.44,-2.79 -68.06,-2.29l-29.86 38.49z"/>
  <path class="fil2" d="M2193.52 1896.45c-0.6,0.17 -103.02,60.24 -104.06,61.22 -17.53,16.74 14.52,65.47 19.97,107.65 20.76,160.89 31.44,74.98 -10.94,248.05 -20.18,82.41 -73.84,166.04 -167.09,171.41 -75.78,4.36 -77.18,-21.76 -57.58,60.58 9.72,40.82 24.67,84.75 31.9,120.35 19.48,95.89 277.78,-250.79 290.08,-321 7.17,-40.91 106.13,-185.8 90.91,-255.82 -11.42,-52.52 31.32,-227.52 -93.2,-192.44z"/>
  <path class="fil3" d="M7311.56 3750.01c-54.8,-11.84 -2.03,-25.69 -71.72,-42.99 -29.54,-7.34 -61.1,-16.4 -90.66,-24.43 -7.08,-1.92 -137.49,-77.64 -147.52,-86.33 -19.79,-17.12 -309.58,-89.81 -361.95,-106.36 -69.61,-22 -34.74,8.81 -76.15,2.7 -17.67,-2.61 -68.68,-19.86 -89.57,-25.94 -61.13,-17.8 -90.92,-1.16 -149.17,9.13 -99.33,17.55 -242.55,-5.03 -344.39,-58.91 -46.28,47.6 -22.03,1.43 -70.45,10.67 -6.21,1.19 -52.58,31.56 -66.72,37.4 -35.14,14.53 -105.19,0.82 -114.77,81.2 18.68,5.52 140.48,-44.82 163.59,-56.88 28,-14.62 179.51,38.18 218.55,49.31 99.95,28.48 106.25,47.11 208.49,23.92 56.82,-12.89 37.08,21.64 92.33,-15 12.21,-8.09 77.24,-19.65 92.45,-15.94 83.36,20.34 116.32,10.07 214.82,38.85 74.33,21.71 149.14,41.72 223.53,63.22 57.88,16.73 384.62,177.74 396.37,142.03l-27.06 -25.64z"/>
  <path class="fil5" d="M2169.11 3088.7c11.13,-11.65 26.73,-79.24 31.91,-99.12 23.18,-88.85 27.66,-8.45 46.98,-80.6 17.25,-64.44 47.72,-148.88 59.98,-210.68 8.99,-45.29 -23.49,-5.94 2.21,-93.54 15.42,-52.58 25.97,-57.17 12.36,-99.61 -11.81,-36.8 3.5,-32.29 -30.42,-86.48 -5.05,-8.07 -47.54,40.88 -50.6,50.66 -20.42,65.32 3.87,41.35 -55.88,72.84 -2.48,1.31 -53.51,72.3 -55.56,76.44 -40.32,81.22 -9.89,14.66 -60.97,63.34 -25.78,24.57 18.58,35.29 19.28,77.19 0.6,36.59 60.22,311.1 80.71,329.56z"/>
  <path class="fil1" d="M5898.36 6415.85c0.63,-1.22 -43.26,-313.42 -48.2,-335.92 -8.34,-37.96 -39.64,7.18 -63.97,-49.72 -11.32,-26.49 -28.14,-51.16 -41.86,-76.75 -33.15,-61.84 -97.23,-78.52 -146.17,-21.28 -120.22,140.63 -66.51,142.72 82.95,246.38 7.2,4.99 123.2,111.02 124.74,113.34 7.69,11.58 90.11,124.28 92.51,123.95z"/>
  <path class="fil3" d="M3938.56 2821.68c32.34,50.58 88.61,-23.08 134.47,-24.94 36.97,-1.51 101.7,-22.96 137.74,-27.76 28.13,-3.74 289.25,8.97 271.48,-25.33 -21.46,-41.43 -282.05,-45.8 -301.75,-34.12 -36.05,21.38 -241.76,58.84 -241.94,112.15z"/>
 </g>
</svg>
